<svg
   xmlns:dc="http://purl.org/dc/elements/1.1/"
   xmlns:cc="http://creativecommons.org/ns#"
   xmlns:rdf="http://www.w3.org/1999/02/22-rdf-syntax-ns#"
   xmlns:svg="http://www.w3.org/2000/svg"
   xmlns="http://www.w3.org/2000/svg"
   height="30.438103"
   width="25.078575"
   id="svg5"
   version="1.1">
  <metadata
     id="metadata11">
    <rdf:RDF>
      <cc:Work
         rdf:about="">
        <dc:format>image/svg+xml</dc:format>
        <dc:type
           rdf:resource="http://purl.org/dc/dcmitype/StillImage" />
      </cc:Work>
    </rdf:RDF>
  </metadata>
  <defs
     id="defs9" />
  <g
     transform="translate(-1017.5096,81.676479)"
     class="@"
     style="font-style:normal;font-variant:normal;font-weight:normal;font-stretch:normal;font-size:48px;line-height:25px;font-family:Dyuthi;-inkscape-font-specification:'Dyuthi, Normal';font-variant-ligatures:normal;font-variant-caps:normal;font-variant-numeric:normal;font-variant-east-asian:normal;text-align:start;letter-spacing:0px;word-spacing:0px;writing-mode:lr-tb;text-anchor:start;fill:#4e9a06;fill-opacity:1;stroke:#ffffff;stroke-width:1;stroke-linecap:butt;stroke-linejoin:miter;stroke-miterlimit:4;stroke-dasharray:none;stroke-opacity:1"
     id="text3"
     aria-label="Z">
    <path
       id="path13"
       style="fill:#4e9a06"
       d="m 1018.0097,-54.387417 q 0,-0.914062 0.5156,-1.617187 l 14.3203,-19.570313 v -0.164062 l -11.6718,0.421875 q -1.9453,0.07031 -2.5547,-1.828125 l -0.047,-0.09375 q -0.4922,-1.570313 0.4219,-2.8125 0.8203,-1.125 2.1328,-1.125 h 18.0469 q 1.1953,0 1.9687,0.820312 0.8672,0.84375 0.8672,2.015625 v 0 q 0,0.914063 -0.5625,1.710938 l -13.9922,19.242187 v 0.1875 l 11.9063,-0.445312 q 1.9453,-0.07031 2.5547,1.898437 v 0.04687 q 0.4921,1.59375 -0.375,2.859375 -0.7735,1.101563 -2.1797,1.101563 h -18.75 q -1.1016,0.02344 -1.8282,-0.773438 -0.7734,-0.773437 -0.7734,-1.875 z" />
  </g>
</svg>
