<svg
   xmlns:dc="http://purl.org/dc/elements/1.1/"
   xmlns:cc="http://creativecommons.org/ns#"
   xmlns:rdf="http://www.w3.org/1999/02/22-rdf-syntax-ns#"
   xmlns:svg="http://www.w3.org/2000/svg"
   xmlns="http://www.w3.org/2000/svg"
   height="30.976562"
   width="23.424564"
   id="svg5"
   version="1.1">
  <metadata
     id="metadata11">
    <rdf:RDF>
      <cc:Work
         rdf:about="">
        <dc:format>image/svg+xml</dc:format>
        <dc:type
           rdf:resource="http://purl.org/dc/dcmitype/StillImage" />
      </cc:Work>
    </rdf:RDF>
  </metadata>
  <defs
     id="defs9" />
  <g
     transform="translate(-987.13318,111.58294)"
     class="@"
     style="font-style:normal;font-variant:normal;font-weight:normal;font-stretch:normal;font-size:48px;line-height:25px;font-family:Dyuthi;-inkscape-font-specification:'Dyuthi, Normal';font-variant-ligatures:normal;font-variant-caps:normal;font-variant-numeric:normal;font-variant-east-asian:normal;text-align:start;letter-spacing:0px;word-spacing:0px;writing-mode:lr-tb;text-anchor:start;fill:#204a87;fill-opacity:1;stroke:#ffffff;stroke-width:1;stroke-linecap:butt;stroke-linejoin:miter;stroke-miterlimit:4;stroke-dasharray:none;stroke-opacity:1"
     id="text3"
     aria-label="Y">
    <path
       id="path13"
       style="fill:#204a87"
       d="m 995.19904,-93.247002 -7.17188,-12.984378 q -0.89062,-1.59375 0.16406,-3.25781 1.00782,-1.59375 2.83594,-1.59375 h 0.375 q 2.27344,0 3.11719,2.15625 2.17969,5.41406 4.45312,10.476563 l 4.50003,-10.476563 q 0.914,-2.15625 3.1172,-2.15625 h 0.047 q 1.8985,0 2.9063,1.64063 1.0078,1.66406 0.094,3.23437 l -7.4062,12.703126 v 8.601562 q 0,1.734375 -1.0313,2.765625 -1.0078,1.03125 -2.43746,1.03125 h -0.0937 q -1.42969,0 -2.4375,-1.03125 -1.03125,-1.007812 -1.03125,-2.765625 z" />
  </g>
</svg>
