<svg
   xmlns:dc="http://purl.org/dc/elements/1.1/"
   xmlns:cc="http://creativecommons.org/ns#"
   xmlns:rdf="http://www.w3.org/1999/02/22-rdf-syntax-ns#"
   xmlns:svg="http://www.w3.org/2000/svg"
   xmlns="http://www.w3.org/2000/svg"
   height="79.806038"
   width="164.65349"
   id="svg5"
   version="1.1">
  <metadata
     id="metadata11">
    <rdf:RDF>
      <cc:Work
         rdf:about="">
        <dc:format>image/svg+xml</dc:format>
        <dc:type
           rdf:resource="http://purl.org/dc/dcmitype/StillImage" />
      </cc:Work>
    </rdf:RDF>
  </metadata>
  <defs
     id="defs9" />
  <g
     transform="translate(-899.41547,-53.101578)"
     class="@"
     style="font-style:normal;font-variant:normal;font-weight:normal;font-stretch:normal;font-size:96px;line-height:25px;font-family:Arial;-inkscape-font-specification:'Arial, Normal';font-variant-ligatures:normal;font-variant-caps:normal;font-variant-numeric:normal;font-feature-settings:normal;text-align:start;letter-spacing:0px;word-spacing:0px;writing-mode:lr-tb;text-anchor:start;fill:#edd400;fill-opacity:1;stroke:#204a87;stroke-width:4;stroke-linecap:butt;stroke-linejoin:miter;stroke-miterlimit:4;stroke-dasharray:none;stroke-opacity:1"
     id="text3"
     aria-label="QW">
    <path
       id="path13"
       d="m 956.77484,117.6797 q 6.32813,4.35938 11.67188,6.375 l -2.67188,6.32813 q -7.40625,-2.67188 -14.76562,-8.4375 -7.64063,4.26562 -16.875,4.26562 -9.32813,0 -16.92188,-4.5 -7.59375,-4.5 -11.71875,-12.65625 -4.07812,-8.15625 -4.07812,-18.374997 0,-10.171875 4.125,-18.515625 4.125,-8.34375 11.71875,-12.703125 7.64062,-4.359375 17.0625,-4.359375 9.51562,0 17.15625,4.546875 7.64062,4.5 11.625,12.65625 4.03125,8.109375 4.03125,18.328125 0,8.484375 -2.57813,15.281252 -2.57812,6.75 -7.78125,11.76562 z m -20.01562,-11.625 q 7.875,2.20313 12.98437,6.5625 8.01563,-7.3125 8.01563,-21.984372 0,-8.34375 -2.85938,-14.578125 -2.8125,-6.234375 -8.29687,-9.65625 -5.4375,-3.46875 -12.23438,-3.46875 -10.17187,0 -16.875,6.984375 -6.70312,6.9375 -6.70312,20.765625 0,13.406247 6.60937,20.578127 6.65625,7.17187 16.96875,7.17187 4.875,0 9.1875,-1.82812 -4.26562,-2.76563 -9,-3.9375 z" />
    <path
       id="path15"
       d="M 991.32172,125.03908 973.08734,56.320328 h 9.32813 l 10.45312,45.046872 q 1.6875,7.07813 2.90625,14.0625 2.625,-11.01562 3.09375,-12.70312 l 13.07811,-46.406252 h 10.9688 l 9.8437,34.78125 q 3.7031,12.937502 5.3438,24.328122 1.3125,-6.51562 3.4218,-14.95312 l 10.7813,-44.156252 h 9.1406 l -18.8437,68.718752 h -8.7657 L 1019.353,72.679703 q -1.8282,-6.5625 -2.1563,-8.0625 -1.0781,4.734375 -2.0156,8.0625 l -14.5781,52.359377 z" />
  </g>
</svg>
