<?xml version="1.0" encoding="UTF-8"?>
<svg id="svg5" width="28.44" height="32.616" version="1.1" xmlns="http://www.w3.org/2000/svg" xmlns:cc="http://creativecommons.org/ns#" xmlns:dc="http://purl.org/dc/elements/1.1/" xmlns:rdf="http://www.w3.org/1999/02/22-rdf-syntax-ns#">
 <metadata id="metadata11">
  <rdf:RDF>
   <cc:Work rdf:about="">
    <dc:format>image/svg+xml</dc:format>
    <dc:type rdf:resource="http://purl.org/dc/dcmitype/StillImage"/>
   </cc:Work>
  </rdf:RDF>
 </metadata>
 <g id="text3" class="@" transform="translate(997.55 -68.176)" fill="#f9f06b" stroke-width="1px" style="font-variant-caps:normal;font-variant-east-asian:normal;font-variant-ligatures:normal;font-variant-numeric:normal" aria-label="c">
  <path id="path13" d="m-970.77 91.288c-0.216 0-0.432 0.216-0.864 0.72-2.808 3.24-6.624 5.328-11.088 5.976-0.576 0.072-1.44 0.144-2.232 0.144-2.304 0-3.384-0.576-4.464-1.728-1.296-1.152-1.872-2.664-1.872-4.968 0-1.44 0.288-3.24 0.792-5.4 1.512-6.408 2.808-9.36 5.328-11.88 1.008-1.008 1.944-1.728 3.096-2.232 1.512-0.792 2.448-1.008 4.104-1.008 3.168 0 4.392 1.008 4.392 1.224l-0.072 0.072c-0.072 0-0.432 0.144-0.792 0.36-1.584 0.72-2.592 2.376-2.592 4.032 0 1.8 1.152 2.88 2.952 2.88 2.808 0 4.824-2.088 4.824-5.04 0-2.304-1.512-4.392-4.032-5.472-1.368-0.504-3.024-0.792-4.68-0.792-0.432 0-0.936 0-1.368 0.072-7.128 0.792-14.04 6.336-16.848 13.536-0.936 2.376-1.368 4.464-1.368 6.768 0 2.376 0.432 4.104 1.368 5.904 1.8 3.744 5.472 6.336 10.728 6.336 0.936 0 2.016-0.072 2.808-0.144 4.392-0.648 8.28-2.304 11.304-5.04 0.792-0.72 2.232-2.16 2.232-2.664 0-0.36-1.224-1.656-1.656-1.656z"/>
 </g>
</svg>
