<?xml version="1.0" encoding="UTF-8"?>
<svg id="svg5" width="34.056" height="32.472" version="1.1" xmlns="http://www.w3.org/2000/svg" xmlns:cc="http://creativecommons.org/ns#" xmlns:dc="http://purl.org/dc/elements/1.1/" xmlns:rdf="http://www.w3.org/1999/02/22-rdf-syntax-ns#">
 <metadata id="metadata11">
  <rdf:RDF>
   <cc:Work rdf:about="">
    <dc:format>image/svg+xml</dc:format>
    <dc:type rdf:resource="http://purl.org/dc/dcmitype/StillImage"/>
   </cc:Work>
  </rdf:RDF>
 </metadata>
 <g id="text3" class="@" transform="translate(1997.6 -268.25)" fill="#ffbe6f" stroke-width="1px" style="font-variant-caps:normal;font-variant-east-asian:normal;font-variant-ligatures:normal;font-variant-numeric:normal" aria-label="a">
  <path id="path13" d="m-1964.9 288.98h-0.288c-1.08 0-1.008 0.072-1.44 1.584-1.008 3.888-1.8 5.832-2.952 6.912-0.504 0.36-0.864 0.576-1.44 0.648-1.656 0-2.016-1.296-2.016-3.024 0-2.448 5.4-21.528 5.4-23.472 0-1.224-1.224-2.016-2.376-2.016-1.512 0-2.664 0.936-3.312 2.16-1.512-1.872-3.384-3.528-6.48-3.528-3.384 0-6.264 1.296-8.784 3.24-4.392 3.312-8.208 9.288-8.928 15.624-0.072 0.432-0.072 1.008-0.072 1.584 0 3.456 0.648 5.832 2.16 8.064 1.728 2.232 3.96 3.96 7.848 3.96 0.72 0 1.368 0 1.8-0.072 2.304-0.504 4.608-1.872 6.84-3.96 0.504-0.432 0.504-0.504 0.576-0.36 0 0.144 0.216 0.504 0.36 0.864 1.08 2.088 3.312 3.528 6.336 3.528 1.08 0 1.152 0 1.728-0.144 0.864-0.36 1.512-0.72 2.304-1.512 1.584-1.584 2.808-4.176 3.888-8.352 0.144-0.576 0.216-0.864 0.216-1.08 0-0.648-0.288-0.648-1.368-0.648zm-26.568 3.384c0-0.576 0.072-1.152 0.072-1.656 0.36-2.592 1.944-9.072 2.952-11.808 1.296-3.6 4.248-8.064 8.424-8.064 2.16 0 3.6 1.224 4.536 3.096 0.288 0.576 0.792 1.8 0.792 2.448 0 0.792-3.6 15.336-3.816 15.696-0.36 0.72-2.88 3.528-4.104 4.32-1.584 1.152-3.096 1.728-4.464 1.728-3.024 0-4.392-2.448-4.392-5.76z"/>
 </g>
</svg>
