<svg
   xmlns:dc="http://purl.org/dc/elements/1.1/"
   xmlns:cc="http://creativecommons.org/ns#"
   xmlns:rdf="http://www.w3.org/1999/02/22-rdf-syntax-ns#"
   xmlns:svg="http://www.w3.org/2000/svg"
   xmlns="http://www.w3.org/2000/svg"
   height="29.953125"
   width="21.739319"
   id="svg5"
   version="1.1">
  <metadata
     id="metadata11">
    <rdf:RDF>
      <cc:Work
         rdf:about="">
        <dc:format>image/svg+xml</dc:format>
        <dc:type
           rdf:resource="http://purl.org/dc/dcmitype/StillImage" />
      </cc:Work>
    </rdf:RDF>
  </metadata>
  <defs
     id="defs9" />
  <g
     transform="translate(-965.04587,84.159283)"
     class="@"
     style="font-style:normal;font-variant:normal;font-weight:normal;font-stretch:normal;font-size:48px;line-height:25px;font-family:Dyuthi;-inkscape-font-specification:'Dyuthi, Normal';font-variant-ligatures:normal;font-variant-caps:normal;font-variant-numeric:normal;font-variant-east-asian:normal;text-align:start;letter-spacing:0px;word-spacing:0px;writing-mode:lr-tb;text-anchor:start;fill:#cc0000;fill-opacity:1;stroke:none;stroke-width:4;stroke-linecap:butt;stroke-linejoin:miter;stroke-miterlimit:4;stroke-dasharray:none;stroke-opacity:1"
     id="text3"
     aria-label="X">
    <path
       id="path13"
       d="m 982.66797,-84.159283 q -2.29688,0 -3.11719,1.898438 l -3.63281,8.273437 -3.63281,-8.273437 q -0.84375,-1.898438 -3.11719,-1.898438 h -0.51563 q -2.20312,0 -3.11718,1.851563 -0.91407,1.757812 0.16406,3.632812 l 5.53125,9.65625 -5.53125,9.070313 q -1.21875,1.992187 -0.16406,3.84375 1.03125,1.898437 3.11718,1.898437 h 0.51563 q 2.25,0 3.11719,-1.898437 l 3.63281,-7.96875 3.63281,7.96875 q 0.86719,1.898437 3.11719,1.898437 h 0.0937 q 2.57812,0 3.5625,-1.898437 1.00781,-1.898438 -0.1875,-3.84375 l -5.50781,-9.070313 5.50781,-9.65625 q 1.10156,-1.945312 0.1875,-3.632812 -1.05469,-1.851563 -3.5625,-1.851563 z" />
  </g>
</svg>
