<svg
   xmlns:dc="http://purl.org/dc/elements/1.1/"
   xmlns:cc="http://creativecommons.org/ns#"
   xmlns:rdf="http://www.w3.org/1999/02/22-rdf-syntax-ns#"
   xmlns:svg="http://www.w3.org/2000/svg"
   xmlns="http://www.w3.org/2000/svg"
   height="68.543999"
   width="645.28497"
   id="svg8"
   version="1.1">
  <metadata
     id="metadata14">
    <rdf:RDF>
      <cc:Work
         rdf:about="">
        <dc:format>image/svg+xml</dc:format>
        <dc:type
           rdf:resource="http://purl.org/dc/dcmitype/StillImage" />
      </cc:Work>
    </rdf:RDF>
  </metadata>
  <defs
     id="defs12" />
  <g
     class="@"
     style="font-style:normal;font-variant:normal;font-weight:normal;font-stretch:normal;font-size:96px;line-height:25px;font-family:Sarai;-inkscape-font-specification:'Sarai, Normal';font-variant-ligatures:normal;font-variant-caps:normal;font-variant-numeric:normal;font-variant-east-asian:normal;text-align:start;letter-spacing:0px;word-spacing:0px;writing-mode:lr-tb;white-space:pre;shape-inside:url(#rect891);fill:#c17d11;fill-opacity:1;stroke:none;stroke-width:1px;stroke-linecap:butt;stroke-linejoin:miter;stroke-opacity:1"
     id="text6"
     transform="translate(-1.248,52.416)"
     aria-label="Proof of Equal Area ">
    <path
       id="path16"
       d="m 39.36,-36.288 q 0,6.624 -4.512,10.272 -4.128,3.456 -10.944,3.456 -3.456,0 -8.736,-1.152 v 14.976 q 0,4.8 1.152,6.144 1.536,1.728 4.416,1.728 h 1.728 V 0 H 1.248 V -0.864 H 2.88 q 3.36,0 4.8,-2.208 0.864,-1.344 0.864,-5.664 V -41.28 q 0,-4.896 -1.152,-6.048 -1.344,-1.728 -4.512,-1.728 H 1.248 v -0.96 h 18.336 q 12.096,0 17.088,6.048 2.688,3.264 2.688,7.68 z m -8.064,0.768 q 0,-3.072 -1.344,-6.24 -1.728,-2.976 -3.936,-4.224 -2.592,-1.44 -5.664,-1.44 -2.592,0 -5.184,0.768 v 21.312 l 2.112,0.288 q 2.592,0.48 3.072,0.48 h 1.152 q 4.416,0 7.2,-3.36 2.592,-3.072 2.592,-7.584 z" />
    <path
       id="path18"
       d="m 67.632,-30.816 q 0,3.168 -3.072,3.168 -1.152,0 -2.88,-1.248 -1.632,-1.344 -2.496,-1.344 -0.576,0 -1.632,0.864 -1.728,1.728 -3.552,5.184 v 16.416 q 0,4.896 2.592,6.24 1.248,0.672 3.36,0.672 V 0 H 42.864 v -0.864 q 2.4,0 3.744,-0.864 0.96,-0.384 1.44,-2.016 0.192,-0.672 0.192,-3.744 v -13.248 q 0,-6.24 -0.192,-7.2 -0.48,-2.304 -2.784,-2.304 -1.344,0 -2.496,0.48 l -0.192,-0.96 10.08,-4.032 H 54 v 8.352 q 4.512,-8.352 9.12,-8.352 1.824,0 3.168,1.056 1.344,1.056 1.344,2.88 z" />
    <path
       id="path20"
       d="m 102.261,-17.472 q 0,4.608 -2.208,9.024 -2.208,4.8 -6.048,7.2 -3.744,2.304 -8.448,2.304 -7.008,0 -11.616,-5.376 -4.32,-5.088 -4.32,-12.192 0,-4.608 2.304,-9.216 2.304,-4.608 6.048,-6.816 3.84,-2.208 8.064,-2.208 7.2,0 11.712,5.088 4.512,4.992 4.512,12.192 z m -6.432,2.784 q 0,-9.12 -4.032,-14.496 -2.784,-3.648 -6.912,-3.648 -2.304,0 -4.128,1.248 -4.608,2.4 -4.608,11.904 0,6.432 2.304,11.712 3.072,6.816 8.736,6.816 8.64,0 8.64,-13.536 z" />
    <path
       id="path22"
       d="m 139.9485,-17.472 q 0,4.608 -2.208,9.024 -2.208,4.8 -6.048,7.2 -3.744,2.304 -8.448,2.304 -7.008,0 -11.616,-5.376 -4.32,-5.088 -4.32,-12.192 0,-4.608 2.304,-9.216 2.304,-4.608 6.048,-6.816 3.84,-2.208 8.064,-2.208 7.2,0 11.712,5.088 4.512,4.992 4.512,12.192 z m -6.432,2.784 q 0,-9.12 -4.032,-14.496 -2.784,-3.648 -6.912,-3.648 -2.304,0 -4.128,1.248 -4.608,2.4 -4.608,11.904 0,6.432 2.304,11.712 3.072,6.816 8.736,6.816 8.64,0 8.64,-13.536 z" />
    <path
       id="path24"
       d="m 175.332,-46.272 q 0,1.056 -0.96,1.92 -0.864,0.864 -1.92,0.864 -1.824,0 -3.936,-3.072 -1.152,-1.728 -2.592,-2.88 -1.248,-0.672 -2.688,-0.672 -2.112,0 -3.072,0.96 -1.344,0.96 -1.824,2.88 -0.576,2.304 -0.576,9.984 v 2.688 h 8.832 v 2.208 h -8.832 v 22.656 q 0,4.8 1.152,6.144 1.536,1.728 3.84,1.728 h 2.88 V 0 h -19.968 v -0.864 h 1.248 q 3.552,0 4.704,-2.88 0.48,-1.728 0.48,-4.992 v -22.656 h -6.72 V -33.6 h 6.72 v -2.496 q 0,-9.792 6.528,-14.112 3.168,-2.112 7.488,-2.112 3.936,0 7.104,2.496 2.112,1.632 2.112,3.552 z" />
    <path
       id="path26"
       d="m 233.886,-17.472 q 0,4.608 -2.208,9.024 -2.208,4.8 -6.048,7.2 -3.744,2.304 -8.448,2.304 -7.008,0 -11.616,-5.376 -4.32,-5.088 -4.32,-12.192 0,-4.608 2.304,-9.216 2.304,-4.608 6.048,-6.816 3.84,-2.208 8.064,-2.208 7.2,0 11.712,5.088 4.512,4.992 4.512,12.192 z m -6.432,2.784 q 0,-9.12 -4.032,-14.496 -2.784,-3.648 -6.912,-3.648 -2.304,0 -4.128,1.248 -4.608,2.4 -4.608,11.904 0,6.432 2.304,11.712 3.072,6.816 8.736,6.816 8.64,0 8.64,-13.536 z" />
    <path
       id="path28"
       d="m 269.2695,-46.272 q 0,1.056 -0.96,1.92 -0.864,0.864 -1.92,0.864 -1.824,0 -3.936,-3.072 -1.152,-1.728 -2.592,-2.88 -1.248,-0.672 -2.688,-0.672 -2.112,0 -3.072,0.96 -1.344,0.96 -1.824,2.88 -0.576,2.304 -0.576,9.984 v 2.688 h 8.832 v 2.208 h -8.832 v 22.656 q 0,4.8 1.152,6.144 1.536,1.728 3.84,1.728 h 2.88 V 0 h -19.968 v -0.864 h 1.248 q 3.552,0 4.704,-2.88 0.48,-1.728 0.48,-4.992 v -22.656 h -6.72 V -33.6 h 6.72 v -2.496 q 0,-9.792 6.528,-14.112 3.168,-2.112 7.488,-2.112 3.936,0 7.104,2.496 2.112,1.632 2.112,3.552 z" />
    <path
       id="path30"
       d="M 336.9435,-12.192 332.8155,0 h -38.592 v -0.864 h 1.536 q 1.632,0 3.552,-0.864 1.632,-1.152 2.016,-3.072 0.096,-0.576 0.096,-3.84 v -32.832 q 0,-5.088 -0.96,-6.048 -1.44,-1.536 -4.704,-1.536 h -1.536 v -0.96 h 38.496 l 0.576,10.56 h -1.056 q -0.672,-3.84 -1.728,-5.28 -1.728,-2.976 -8.256,-2.976 h -14.112 v 20.448 h 11.328 q 4.32,0 6.144,-1.536 1.824,-1.536 2.016,-5.856 h 0.96 v 17.088 h -0.96 q -0.48,-3.648 -1.056,-4.512 -1.344,-2.976 -7.104,-2.976 h -11.328 V -8.16 q 0,3.456 0.192,4.032 0.288,0.48 0.576,0.768 l 0.672,0.672 q 0.672,0.384 2.976,0.384 h 8.544 q 4.128,0 6.336,-0.576 3.072,-0.768 6.144,-5.184 1.152,-1.728 2.4,-4.128 z" />
    <path
       id="path32"
       d="m 376.5405,16.128 h -16.8 v -0.864 h 0.48 q 2.4,0 3.36,-0.672 1.728,-0.864 1.728,-5.76 v -15.36 q -6.144,7.392 -11.424,7.392 -5.952,0 -9.504,-5.376 -3.072,-4.704 -3.072,-10.944 0,-7.968 4.608,-13.44 4.992,-5.856 12.768,-5.856 4.128,0 7.104,2.4 2.784,-1.344 4.224,-2.4 h 0.96 V 8.832 q 0,4.704 2.016,5.856 0.96,0.576 3.552,0.576 z m -11.232,-24.192 v -16.128 q 0,-5.184 -3.456,-7.296 -1.92,-1.152 -4.32,-1.152 -5.376,0 -8.16,4.8 -2.304,3.936 -2.304,9.696 0,5.664 2.4,9.6 2.88,4.704 8.256,4.704 4.224,0 7.584,-4.224 z" />
    <path
       id="path34"
       d="m 414.036,-3.072 -9.888,4.128 h -1.44 v -7.68 q -4.992,5.472 -7.104,6.432 -2.112,1.248 -4.704,1.248 -6.048,0 -7.776,-5.76 -0.768,-2.496 -0.768,-7.392 V -27.36 q 0,-4.128 -2.208,-4.992 -0.864,-0.672 -3.552,-0.48 v -0.96 h 11.52 v 22.656 q 0,5.088 1.632,6.624 1.632,1.44 4.224,1.44 3.744,0 8.736,-4.992 v -19.488 q 0,-3.072 -1.248,-4.128 -1.152,-1.152 -4.224,-1.152 v -0.96 h 11.136 v 20.544 q 0,8.256 1.248,9.312 0.672,0.576 1.632,0.576 1.056,0 2.496,-0.576 z" />
    <path
       id="path36"
       d="m 447.5955,-4.8 q -4.032,5.472 -7.776,5.472 -2.784,0 -3.552,-2.88 -0.288,-1.056 -0.288,-2.976 l -4.608,3.456 q -1.728,1.248 -2.4,1.536 -1.92,0.864 -4.128,0.864 -3.552,0 -5.76,-2.304 -2.208,-2.304 -2.208,-6.24 0,-5.28 6.336,-8.928 3.36,-2.016 12.768,-5.472 v -1.536 q 0,-9.12 -6.624,-9.12 -2.4,0 -3.84,1.344 -1.44,1.248 -1.44,2.4 -0.096,0.48 0,2.784 0.096,3.36 -2.976,3.36 -1.248,0 -2.112,-0.96 -0.768,-0.96 -0.768,-2.4 0,-4.224 4.32,-6.528 3.456,-1.824 7.968,-1.824 4.512,0 7.392,1.536 2.016,1.056 3.072,3.456 0.672,1.536 0.672,6.528 v 11.616 q 0,4.896 0.288,6.144 0.384,1.248 0.672,1.44 0.48,0.48 1.152,0.48 0.864,0 3.84,-2.688 z m -11.616,-2.208 v -13.536 l -4.896,2.016 q -1.728,0.768 -2.784,1.344 -5.664,3.072 -5.664,7.584 0,2.496 1.536,4.512 1.632,1.92 4.032,1.92 3.072,0 7.776,-3.84 z" />
    <path
       id="path38"
       d="M 467.142,0 H 450.63 v -0.864 q 1.92,0 3.168,-0.48 1.92,-1.344 1.92,-6.144 v -35.52 q 0,-3.552 -1.152,-4.512 -0.672,-0.48 -1.632,-0.48 -0.672,0 -2.4,0.48 l -0.48,-0.864 10.08,-4.032 h 1.44 v 44.928 q 0,2.976 0.48,4.416 1.344,2.208 5.088,2.208 z" />
    <path
       id="path40"
       d="m 553.539,0 h -19.392 v -0.864 q 5.088,-0.48 5.088,-3.36 0,-1.92 -1.44,-5.28 l -3.168,-7.392 h -19.872 l -3.456,8.064 q -1.248,2.88 -1.248,4.512 0,1.344 1.056,2.304 1.056,0.864 4.8,1.152 V 0 h -15.456 v -0.96 q 2.688,-0.48 3.744,-1.152 1.056,-0.768 2.304,-3.072 1.248,-2.304 2.208,-4.608 l 17.76,-41.376 h 0.96 l 17.472,41.856 q 2.112,5.088 3.936,6.624 1.536,1.536 4.704,1.824 z m -19.776,-19.2 -8.832,-21.216 -9.216,21.216 z" />
    <path
       id="path42"
       d="m 580.0695,-30.816 q 0,3.168 -3.072,3.168 -1.152,0 -2.88,-1.248 -1.632,-1.344 -2.496,-1.344 -0.576,0 -1.632,0.864 -1.728,1.728 -3.552,5.184 v 16.416 q 0,4.896 2.592,6.24 1.248,0.672 3.36,0.672 V 0 h -17.088 v -0.864 q 2.4,0 3.744,-0.864 0.96,-0.384 1.44,-2.016 0.192,-0.672 0.192,-3.744 v -13.248 q 0,-6.24 -0.192,-7.2 -0.48,-2.304 -2.784,-2.304 -1.344,0 -2.496,0.48 l -0.192,-0.96 10.08,-4.032 h 1.344 v 8.352 q 4.512,-8.352 9.12,-8.352 1.824,0 3.168,1.056 1.344,1.056 1.344,2.88 z" />
    <path
       id="path44"
       d="m 610.9545,-12.096 q -0.864,4.992 -4.608,9.12 -3.648,4.032 -9.216,4.032 -6.912,0 -11.04,-5.376 -3.744,-4.896 -3.744,-12.096 0,-8.544 4.416,-13.44 4.512,-4.992 11.232,-4.992 5.952,0 9.312,3.744 3.456,3.744 3.648,9.792 h -23.712 q -0.192,7.776 3.648,12.288 3.936,4.416 9.12,4.416 7.104,0 10.08,-8.064 z m -7.392,-10.944 q -0.096,-1.824 -0.768,-4.992 -2.304,-4.608 -6.912,-4.608 -3.84,0 -6.144,2.88 -2.208,2.784 -2.592,6.72 z" />
    <path
       id="path46"
       d="m 646.533,-4.8 q -4.032,5.472 -7.776,5.472 -2.784,0 -3.552,-2.88 -0.288,-1.056 -0.288,-2.976 l -4.608,3.456 q -1.728,1.248 -2.4,1.536 -1.92,0.864 -4.128,0.864 -3.552,0 -5.76,-2.304 -2.208,-2.304 -2.208,-6.24 0,-5.28 6.336,-8.928 3.36,-2.016 12.768,-5.472 v -1.536 q 0,-9.12 -6.624,-9.12 -2.4,0 -3.84,1.344 -1.44,1.248 -1.44,2.4 -0.096,0.48 0,2.784 0.096,3.36 -2.976,3.36 -1.248,0 -2.112,-0.96 -0.768,-0.96 -0.768,-2.4 0,-4.224 4.32,-6.528 3.456,-1.824 7.968,-1.824 4.512,0 7.392,1.536 2.016,1.056 3.072,3.456 0.672,1.536 0.672,6.528 v 11.616 q 0,4.896 0.288,6.144 0.384,1.248 0.672,1.44 0.48,0.48 1.152,0.48 0.864,0 3.84,-2.688 z m -11.616,-2.208 v -13.536 l -4.896,2.016 q -1.728,0.768 -2.784,1.344 -5.664,3.072 -5.664,7.584 0,2.496 1.536,4.512 1.632,1.92 4.032,1.92 3.072,0 7.776,-3.84 z" />
  </g>
</svg>
