<?xml version="1.0" encoding="UTF-8"?>
<svg id="svg5" width="27.504" height="50.76" version="1.1" xmlns="http://www.w3.org/2000/svg" xmlns:cc="http://creativecommons.org/ns#" xmlns:dc="http://purl.org/dc/elements/1.1/" xmlns:rdf="http://www.w3.org/1999/02/22-rdf-syntax-ns#">
 <metadata id="metadata11">
  <rdf:RDF>
   <cc:Work rdf:about="">
    <dc:format>image/svg+xml</dc:format>
    <dc:type rdf:resource="http://purl.org/dc/dcmitype/StillImage"/>
   </cc:Work>
  </rdf:RDF>
 </metadata>
 <g id="text3" class="@" transform="translate(997.12 -200.03)" fill="#8ff0a4" stroke-width="1px" style="font-variant-caps:normal;font-variant-east-asian:normal;font-variant-ligatures:normal;font-variant-numeric:normal" aria-label="b">
  <path id="path13" d="m-993.59 200.82c-0.144 0-0.288 0.072-0.432 0.216-0.216 0.144-0.288 0.36-0.504 1.152-0.288 1.152-0.288 1.44 0.072 1.728 0.216 0.216 0.216 0.216 1.728 0.216 2.088 0.072 3.528-0.144 3.312 1.512 0 0.072-7.272 29.304-7.272 29.448-0.36 1.656-0.432 2.52-0.432 4.104 0 5.256 2.088 9.072 5.616 10.656 1.296 0.648 2.52 0.936 3.96 0.936 8.712 0 17.928-10.08 17.928-20.952 0-6.336-3.312-10.368-8.208-11.52-0.432-0.072-1.08-0.144-1.8-0.144s-1.368 0.072-1.8 0.144c-1.8 0.432-3.888 1.44-5.472 2.736-0.288 0.288-0.432 0.36-0.432 0.216 0-0.072 1.224-4.68 2.592-10.296 2.16-8.496 2.448-9.936 2.448-10.296 0-0.432-0.432-0.648-0.864-0.648-0.144 0-10.296 0.792-10.44 0.792zm17.784 25.776c0 1.944-0.288 3.6-1.296 7.632-1.656 6.696-2.808 9.36-5.256 11.592-1.584 1.512-3.312 2.304-4.824 2.304-1.08 0-2.088-0.36-2.88-1.152-1.296-1.296-1.728-2.592-1.728-5.184 0-1.512 0.072-2.16 0.432-4.032 0.216-1.152 2.592-10.584 2.664-10.944 0.072-0.072 0.288-0.432 0.576-0.72 2.16-2.88 4.68-4.68 7.056-5.184 0.216 0 0.576-0.072 0.864-0.072 3.24 0 4.392 2.376 4.392 5.76z"/>
 </g>
</svg>
