<svg
   xmlns:dc="http://purl.org/dc/elements/1.1/"
   xmlns:cc="http://creativecommons.org/ns#"
   xmlns:rdf="http://www.w3.org/1999/02/22-rdf-syntax-ns#"
   xmlns:svg="http://www.w3.org/2000/svg"
   xmlns="http://www.w3.org/2000/svg"
   height="52"
   width="52"
   id="svg8"
   version="1.1">
  <metadata
     id="metadata14">
    <rdf:RDF>
      <cc:Work
         rdf:about="">
        <dc:format>image/svg+xml</dc:format>
        <dc:type
           rdf:resource="http://purl.org/dc/dcmitype/StillImage" />
      </cc:Work>
    </rdf:RDF>
  </metadata>
  <defs
     id="defs12" />
  <g
     transform="translate(26,26)"
     id="g6"
     class="@">
    <path
       d="M 24,0 A 24,24 0 0 1 0,24 24,24 0 0 1 -24,0 24,24 0 0 1 0,-24 24,24 0 0 1 24,0"
       style="fill:#4e9a06;stroke:#e9b96e;stroke-width:4"
       id="circle2" />
    <g
       style="font-size:32px;font-family:Dyuthi;fill:#fce94f"
       id="text4"
       aria-label="O">
      <path
         id="path17"
         style="font-size:32px;font-family:Dyuthi;fill:#fce94f"
         d="m 8.703125,-3.9375 q -1.515625,-1.90625 -1.5,-6.921875 0,-2.546875 1.5,-4.421875 Q 10.1875,-17.125 12.25,-17.125 q 1.875,0 3.453125,1.84375 1.578125,1.84375 1.578125,4.421875 0,5.078125 -1.578125,6.921875 -1.578125,1.84375 -3.546875,1.84375 -1.96875,0 -3.453125,-1.84375 z M 12.25,-19.75 q -0.21875,0 -0.671875,0.0625 -3.796875,0.34375 -6.46875,3.015625 -2.765625,2.734375 -2.765625,7.203125 0,4.125 2.421875,6.6875 2.421875,2.5625 6.8125,2.984375 Q 11.875,0.28125 12,0.265625 q 0.04687,-0.015625 0.109375,0 H 12.375 q 0.04687,0.015625 0.109375,0 0.140625,-0.046875 0.421875,-0.0625 4.265625,-0.265625 6.8125,-2.984375 2.4375,-2.609375 2.421875,-6.6875 0.01563,-4.4375 -2.765625,-7.203125 -2.5,-2.53125 -6.46875,-3.015625 Q 12.484375,-19.75 12.25,-19.75 Z" />
    </g>
  </g>
</svg>
