<svg
   xmlns:dc="http://purl.org/dc/elements/1.1/"
   xmlns:cc="http://creativecommons.org/ns#"
   xmlns:rdf="http://www.w3.org/1999/02/22-rdf-syntax-ns#"
   xmlns:svg="http://www.w3.org/2000/svg"
   xmlns="http://www.w3.org/2000/svg"
   height="53.472"
   width="229.1295"
   id="svg8"
   version="1.1">
  <metadata
     id="metadata14">
    <rdf:RDF>
      <cc:Work
         rdf:about="">
        <dc:format>image/svg+xml</dc:format>
        <dc:type
           rdf:resource="http://purl.org/dc/dcmitype/StillImage" />
      </cc:Work>
    </rdf:RDF>
  </metadata>
  <defs
     id="defs12" />
  <g
     class="@"
     style="font-style:normal;font-variant:normal;font-weight:normal;font-stretch:normal;font-size:96px;line-height:25px;font-family:Sarai;-inkscape-font-specification:'Sarai, Normal';font-variant-ligatures:normal;font-variant-caps:normal;font-variant-numeric:normal;font-variant-east-asian:normal;text-align:start;letter-spacing:0px;word-spacing:0px;writing-mode:lr-tb;white-space:pre;shape-inside:url(#rect988);fill:#c17d11;fill-opacity:1;stroke:none;stroke-width:1px;stroke-linecap:butt;stroke-linejoin:miter;stroke-opacity:1"
     id="text6"
     transform="translate(-1.248,52.416)"
     aria-label="Median">
    <path
       id="path16"
       d="M 65.568,0 H 44.64 v -0.864 h 1.536 q 3.36,0 4.704,-2.112 0.864,-1.344 0.864,-5.568 V -43.296 L 31.968,0 h -0.96 L 11.136,-43.296 v 34.752 q 0,4.704 1.056,6.048 1.632,1.632 4.608,1.632 h 1.536 V 0 H 1.248 v -0.864 h 1.536 q 3.168,0 4.704,-2.112 0.864,-1.248 0.864,-5.568 v -32.928 q 0,-5.376 -2.784,-6.912 -1.248,-0.672 -4.32,-0.672 v -0.96 h 13.824 l 18.432,39.84 18.144,-39.84 h 13.92 v 0.96 h -1.536 q -3.552,0 -4.8,2.016 -0.864,1.344 -0.864,5.568 v 32.928 q 0,4.8 1.152,6.048 1.44,1.632 4.512,1.632 h 1.536 z" />
    <path
       id="path18"
       d="m 98.517,-12.096 q -0.864,4.992 -4.608,9.12 -3.648,4.032 -9.216,4.032 -6.912,0 -11.04,-5.376 -3.744,-4.896 -3.744,-12.096 0,-8.544 4.416,-13.44 4.512,-4.992 11.232,-4.992 5.952,0 9.312,3.744 3.456,3.744 3.648,9.792 H 74.805 q -0.192,7.776 3.648,12.288 3.936,4.416 9.12,4.416 7.104,0 10.08,-8.064 z M 91.125,-23.04 q -0.096,-1.824 -0.768,-4.992 -2.304,-4.608 -6.912,-4.608 -3.84,0 -6.144,2.88 -2.208,2.784 -2.592,6.72 z" />
    <path
       id="path20"
       d="m 138.6075,-3.072 -9.984,4.128 h -1.44 v -5.28 q -4.992,5.28 -10.272,5.28 -6.24,0 -10.176,-5.28 -3.552,-4.704 -3.552,-11.136 0,-7.296 4.416,-13.056 4.8,-6.24 11.904,-6.24 4.32,0 7.68,3.168 v -6.816 q 0,-8.064 -1.248,-9.216 -0.48,-0.48 -1.632,-0.48 -0.672,0 -2.4,0.48 l -0.288,-0.864 9.888,-4.032 h 1.44 v 39.168 q 0,8.16 1.248,9.312 0.672,0.576 1.536,0.576 0.96,0 2.592,-0.576 z m -11.424,-3.072 v -17.664 q 0,-5.376 -4.416,-7.872 -2.016,-1.152 -3.744,-1.152 -4.8,0 -7.392,5.088 -2.112,4.128 -2.112,9.408 0,5.856 2.4,10.272 3.072,5.472 8.448,5.472 3.552,0 6.816,-3.552 z" />
    <path
       id="path22"
       d="m 152.871,-48.864 q 0,1.536 -0.96,2.496 -1.344,1.056 -2.592,1.056 -1.248,0 -2.496,-1.152 -1.152,-1.248 -1.152,-2.4 0,-1.44 1.152,-2.496 1.248,-1.056 2.496,-1.056 3.552,0 3.552,3.552 z M 157.479,0 h -16.32 v -0.864 q 2.016,0 3.264,-0.48 2.016,-1.44 2.016,-6.144 V -20.64 q 0,-5.568 -0.384,-7.2 -0.576,-2.304 -2.592,-2.304 -0.768,0 -2.496,0.48 l -0.288,-0.864 10.176,-4.032 h 1.344 v 27.072 q 0,4.8 2.016,6.048 0.96,0.576 3.264,0.576 z" />
    <path
       id="path24"
       d="m 192.783,-4.8 q -4.032,5.472 -7.776,5.472 -2.784,0 -3.552,-2.88 -0.288,-1.056 -0.288,-2.976 l -4.608,3.456 q -1.728,1.248 -2.4,1.536 -1.92,0.864 -4.128,0.864 -3.552,0 -5.76,-2.304 -2.208,-2.304 -2.208,-6.24 0,-5.28 6.336,-8.928 3.36,-2.016 12.768,-5.472 v -1.536 q 0,-9.12 -6.624,-9.12 -2.4,0 -3.84,1.344 -1.44,1.248 -1.44,2.4 -0.096,0.48 0,2.784 0.096,3.36 -2.976,3.36 -1.248,0 -2.112,-0.96 -0.768,-0.96 -0.768,-2.4 0,-4.224 4.32,-6.528 3.456,-1.824 7.968,-1.824 4.512,0 7.392,1.536 2.016,1.056 3.072,3.456 0.672,1.536 0.672,6.528 v 11.616 q 0,4.896 0.288,6.144 0.384,1.248 0.672,1.44 0.48,0.48 1.152,0.48 0.864,0 3.84,-2.688 z m -11.616,-2.208 v -13.536 l -4.896,2.016 q -1.728,0.768 -2.784,1.344 -5.664,3.072 -5.664,7.584 0,2.496 1.536,4.512 1.632,1.92 4.032,1.92 3.072,0 7.776,-3.84 z" />
    <path
       id="path26"
       d="m 230.3775,0 h -16.416 v -0.864 h 0.384 q 2.496,0 3.456,-0.768 1.056,-0.864 1.536,-2.304 0.096,-0.192 0.096,-1.152 v -16.416 q 0,-9.12 -5.568,-9.12 -4.608,0 -9.024,4.992 v 18.144 q 0,3.648 0.384,4.416 0.576,1.248 1.536,1.728 0.96,0.48 3.648,0.48 V 0 h -16.512 v -0.864 h 0.576 q 2.592,0 3.648,-1.44 1.056,-1.536 1.056,-5.184 V -20.16 q 0,-8.352 -1.248,-9.6 -0.672,-0.48 -1.728,-0.48 -1.056,0 -2.4,0.48 l -0.384,-0.96 10.08,-4.032 h 1.344 v 7.68 q 6.432,-7.68 11.712,-7.68 5.76,0 7.776,5.856 0.768,2.304 0.768,6.816 v 14.592 q 0,4.992 2.016,6.048 0.864,0.576 3.264,0.576 z" />
  </g>
</svg>
