<svg
   xmlns:dc="http://purl.org/dc/elements/1.1/"
   xmlns:cc="http://creativecommons.org/ns#"
   xmlns:rdf="http://www.w3.org/1999/02/22-rdf-syntax-ns#"
   xmlns:svg="http://www.w3.org/2000/svg"
   xmlns="http://www.w3.org/2000/svg"
   height="52"
   width="52"
   id="svg8"
   version="1.1">
  <metadata
     id="metadata14">
    <rdf:RDF>
      <cc:Work
         rdf:about="">
        <dc:format>image/svg+xml</dc:format>
        <dc:type
           rdf:resource="http://purl.org/dc/dcmitype/StillImage" />
      </cc:Work>
    </rdf:RDF>
  </metadata>
  <defs
     id="defs12" />
  <g
     transform="translate(26,26)"
     id="g6"
     class="@">
    <path
       d="M 24,0 A 24,24 0 0 1 0,24 24,24 0 0 1 -24,0 24,24 0 0 1 0,-24 24,24 0 0 1 24,0"
       style="fill:#3465a4;stroke:#fcaf3e;stroke-width:4"
       id="circle2" />
    <g
       style="font-size:32px;font-family:Dyuthi;fill:#fce94f"
       id="text4"
       aria-label="A">
      <path
         id="path17"
         style="font-size:32px;font-family:Dyuthi;fill:#fce94f"
         d="m 8.1875,-8.296875 2.546875,-7.015625 2.53125,7.015625 z m 6.140625,-8.53125 q -0.40625,-1.125 -1.40625,-1.828125 -1.015625,-0.703125 -2.03125,-0.703125 h -0.4375 q -1.03125,0 -2.03125,0.703125 -1,0.703125 -1.40625,1.890625 l -4.734375,13.75 q -0.390625,1.125 0.3125,2.109375 0.6875,0.96875 1.859375,0.96875 h 0.34375 q 0.890625,0 1.5625,-0.46875 0.65625,-0.4375 0.796875,-1.1875 l 0.75,-3.828125 h 5.921875 l 0.8125,3.875 q 0.125,0.6875 0.796875,1.140625 0.625,0.46875 1.359375,0.46875 h 0.34375 q 1.15625,0 1.890625,-1 0.6875,-0.96875 0.28125,-2.078125 z" />
    </g>
  </g>
</svg>
