<svg
   xmlns:dc="http://purl.org/dc/elements/1.1/"
   xmlns:cc="http://creativecommons.org/ns#"
   xmlns:rdf="http://www.w3.org/1999/02/22-rdf-syntax-ns#"
   xmlns:svg="http://www.w3.org/2000/svg"
   xmlns="http://www.w3.org/2000/svg"
   height="52"
   width="52"
   id="svg8"
   version="1.1">
  <metadata
     id="metadata14">
    <rdf:RDF>
      <cc:Work
         rdf:about="">
        <dc:format>image/svg+xml</dc:format>
        <dc:type
           rdf:resource="http://purl.org/dc/dcmitype/StillImage" />
      </cc:Work>
    </rdf:RDF>
  </metadata>
  <defs
     id="defs12" />
  <g
     transform="translate(26,26)"
     id="g6"
     class="@">
    <path
       d="M 24,0 A 24,24 0 0 1 0,24 24,24 0 0 1 -24,0 24,24 0 0 1 0,-24 24,24 0 0 1 24,0"
       style="fill:#3465a4;stroke:#fcaf3e;stroke-width:4"
       id="circle2" />
    <g
       style="font-size:32px;font-family:Dyuthi;fill:#fce94f"
       id="text4"
       aria-label="B">
      <path
         id="path17"
         style="font-size:32px;font-family:Dyuthi;fill:#fce94f"
         d="m 8.8125,-2.765625 q -0.84375,-0.03125 -1.1875,-0.03125 -0.265625,0 -0.4375,-0.171875 -0.203125,-0.171875 -0.203125,-0.390625 v -4.875 Q 6.984375,-8.5 7.1875,-8.671875 7.390625,-8.84375 7.640625,-8.84375 H 8.625 q 1.875,0 2.984375,0.578125 1.234375,0.625 1.234375,2.5625 0,1.703125 -1.203125,2.359375 Q 10.53125,-2.765625 8.8125,-2.765625 Z M 6.984375,-15.84375 q 0,-0.546875 0.578125,-0.578125 0.5625,-0.01563 1.3125,-0.03125 3.046875,0 3.109375,2.6875 0.03125,1.421875 -0.890625,2 -0.921875,0.5625 -2.640625,0.5625 H 7.625 Q 7.328125,-11.21875 7.15625,-11.375 6.984375,-11.546875 6.984375,-11.765625 Z m 7.25,5.40625 q 0,-0.203125 0.171875,-0.296875 2.6875,-1.21875 2.6875,-3.671875 0,-2.6875 -2.484375,-3.875 -1.9375,-1.015625 -6.1875,-1.0625 Q 6.46875,-19.375 6.3125,-19.375 4.828125,-19.40625 4.375,-19.42187 q -0.8125,-0.01563 -1.4375,0.5625 -0.59375,0.5625 -0.59375,1.40625 v 15.60937 q 0,0.890625 0.625,1.4375 0.703125,0.59375 1.515625,0.5625 2.796875,-0.125 2.96875,-0.109375 6.03125,-0.015625 8.15625,-1.5625 2.171875,-1.609375 2.15625,-4.03125 0,-3.4375 -3.328125,-4.4375 -0.203125,-0.078125 -0.203125,-0.453125 z" />
    </g>
  </g>
</svg>
