<svg
   xmlns:dc="http://purl.org/dc/elements/1.1/"
   xmlns:cc="http://creativecommons.org/ns#"
   xmlns:rdf="http://www.w3.org/1999/02/22-rdf-syntax-ns#"
   xmlns:svg="http://www.w3.org/2000/svg"
   xmlns="http://www.w3.org/2000/svg"
   height="52"
   width="52"
   id="svg8"
   version="1.1">
  <metadata
     id="metadata14">
    <rdf:RDF>
      <cc:Work
         rdf:about="">
        <dc:format>image/svg+xml</dc:format>
        <dc:type
           rdf:resource="http://purl.org/dc/dcmitype/StillImage" />
      </cc:Work>
    </rdf:RDF>
  </metadata>
  <defs
     id="defs12" />
  <g
     transform="translate(26,26)"
     id="g6"
     class="@">
    <path
       d="M 24,0 A 24,24 0 0 1 0,24 24,24 0 0 1 -24,0 24,24 0 0 1 0,-24 24,24 0 0 1 24,0"
       style="fill:#5c3566;stroke:#fcaf3e;stroke-width:4"
       id="circle2" />
    <g
       style="font-size:32px;font-family:Dyuthi;fill:#fce94f"
       id="text4"
       aria-label="E">
      <path
         id="path17"
         style="font-size:32px;font-family:Dyuthi;fill:#fce94f"
         d="m 7.046875,-3.359375 v -4.9375 l 5.671875,0.140625 q 0.703125,0.015625 1.25,-0.515625 0.515625,-0.5 0.515625,-1.25 v -0.0625 q 0.01563,-0.734375 -0.5,-1.21875 -0.5625,-0.53125 -1.265625,-0.515625 l -5.671875,0.140625 v -4.4375 l 6.015625,0.28125 q 0.609375,0.03125 1.140625,-0.390625 0.171875,-0.140625 0.609375,-1 l 0.01563,-0.0625 q 0.421875,-0.859375 -0.34375,-1.796875 -0.5,-0.625 -1.390625,-0.625 h -7.95313 q -1.1875,0 -1.96875,0.796875 -0.828125,0.859375 -0.828125,2 v 14.125 q 0,1.140625 0.828125,1.96875 Q 4,0.109375 5.140625,0.109375 h 8.375 q 0.75,0.015625 1.265625,-0.515625 0.515625,-0.5 0.515625,-1.25 v -0.0625 q 0,-0.78125 -0.515625,-1.25 -0.578125,-0.515625 -1.265625,-0.515625 z" />
    </g>
  </g>
</svg>
