<svg
   xmlns:dc="http://purl.org/dc/elements/1.1/"
   xmlns:cc="http://creativecommons.org/ns#"
   xmlns:rdf="http://www.w3.org/1999/02/22-rdf-syntax-ns#"
   xmlns:svg="http://www.w3.org/2000/svg"
   xmlns="http://www.w3.org/2000/svg"
   height="52"
   width="52"
   id="svg8"
   version="1.1">
  <metadata
     id="metadata14">
    <rdf:RDF>
      <cc:Work
         rdf:about="">
        <dc:format>image/svg+xml</dc:format>
        <dc:type
           rdf:resource="http://purl.org/dc/dcmitype/StillImage" />
      </cc:Work>
    </rdf:RDF>
  </metadata>
  <defs
     id="defs12" />
  <g
     transform="translate(26,26)"
     id="g6"
     class="@">
    <path
       d="M 24,0 A 24,24 0 0 1 0,24 24,24 0 0 1 -24,0 24,24 0 0 1 0,-24 24,24 0 0 1 24,0"
       style="fill:#3465a4;stroke:#fcaf3e;stroke-width:4"
       id="circle2" />
    <g
       style="font-size:32px;font-family:Dyuthi;fill:#fce94f"
       id="text4"
       aria-label="C">
      <path
         id="path17"
         style="font-size:32px;font-family:Dyuthi;fill:#fce94f"
         d="m 16.421875,-3.671875 q -0.625,-0.171875 -1.3125,0.109375 -1.0625,0.453125 -2.203125,0.453125 -2.453125,0 -4.171875,-1.9375 -1.703125,-1.9375 -1.703125,-4.671875 0,-2.75 1.71875,-4.734375 1.703125,-1.9375 4.15625,-1.9375 1.140625,0 2.234375,0.5 0.625,0.296875 1.25,0.09375 l 0.0625,-0.03125 q 1.1875,-0.390625 1.21875,-1.65625 0,-1.3125 -1.203125,-1.65625 -1.359375,-0.453125 -2.875,-0.5625 -0.453125,-0.0625 -0.6875,-0.03125 -0.21875,-0.03125 -0.6875,0.03125 Q 7.828125,-19.3125 5.09375,-16.6875 2.25,-13.9375 2.25,-9.5 q 0,4.109375 2.5,6.734375 2.6875,2.734375 7.46875,2.96875 Q 12.515625,0.25 12.6875,0.25 h 0.109375 q 0.0625,0 0.109375,0 0.0625,0 0.125,0 h 0.109375 q 0.171875,0 0.453125,-0.046875 1.515625,-0.0625 2.828125,-0.40625 1.34375,-0.34375 1.34375,-1.703125 0.01563,-1.375 -1.296875,-1.765625 z" />
    </g>
  </g>
</svg>
